Coordinates
version=1
nRows=16
nColumns=28
inDegrees=yes

Units are S.I. units (second, meters, Newtons, ...)
Angles are in degrees.

endheader
time	pelvis_tilt	pelvis_list	pelvis_rotation	pelvis_tx	pelvis_ty	pelvis_tz	hip_flexion_r	hip_adduction_r	hip_rotation_r	knee_angle_r	ankle_angle_r	subtalar_angle_r	mtp_angle_r	hip_flexion_l	hip_adduction_l	hip_rotation_l	knee_angle_l	socket_flexion	socket_adduction	socket_rotation	socket_tx	socket_ty	socket_tz	foot_flex	lumbar_extension	lumbar_bending	lumbar_rotation
      0.32083333	      3.27235227	     -2.07584988	     -7.10910952	     -0.43740889	      1.01583959	      0.28802740	     10.58510031	      3.25008149	      5.18953991	    -63.88288954	      2.55896197	    -15.96464675	     24.22362886	     -1.19986631	     -0.09536779	     -6.31455290	    -12.52622985	     -4.84668562	      0.00000000	      0.00000000	      0.00000000	     -0.00586335	      0.00000000	      1.58279384	    -11.87715609	     -1.88514854	      7.76112805
      0.32500000	      3.31873239	     -2.07608473	     -7.03806116	     -0.43257489	      1.01628962	      0.28772970	     11.11188014	      3.30344797	      5.19962432	    -63.60368140	      2.62011165	    -15.96491514	     24.23552083	     -1.54655717	     -0.03707214	     -6.29166349	    -12.56089610	     -4.93342322	      0.00000000	      0.00000000	      0.00000000	     -0.00550522	      0.00000000	      1.62837752	    -11.98026396	     -1.86304663	      7.75358944
      0.32916667	      3.37637570	     -2.38621013	     -6.83232096	     -0.42738900	      1.01671880	      0.28723553	     11.45618910	      3.70058638	      5.11862276	    -63.13900223	      3.42374840	    -15.58354585	     24.52019920	     -2.12200543	     -0.30433720	     -6.07389318	    -12.11186534	     -4.71423923	      0.00000000	      0.00000000	      0.00000000	     -0.00577986	      0.00000000	      1.78181716	    -12.07819002	     -1.42375590	      7.44697343
      0.33333333	      3.42487720	     -2.39140765	     -6.73179399	     -0.42265681	      1.01703652	      0.28705851	     11.98399327	      3.78244733	      5.11333277	    -62.84534097	      3.47211609	    -15.57230251	     24.53045399	     -2.46985471	     -0.26544681	     -6.06991517	    -12.13727197	     -4.79589825	      0.00000000	      0.00000000	      0.00000000	     -0.00551331	      0.00000000	      1.83601262	    -12.17519737	     -1.44423874	      7.43042858
      0.33750000	      3.66880289	     -2.75320243	     -6.49130437	     -0.41733178	      1.01767487	      0.28651696	     12.06120741	      4.16538456	      4.95707520	    -62.22860878	      4.16930258	    -14.85019049	     24.97241429	     -3.52366481	     -0.54319407	     -5.80287774	    -10.88912480	     -4.06078263	      0.00000000	      0.00000000	      0.00000000	     -0.00604856	      0.00000000	      2.04719072	    -12.48150955	     -0.97361994	      6.98414227
      0.34166667	      3.66875743	     -2.83912341	     -6.32472112	     -0.41251961	      1.01793471	      0.28629400	     12.54738093	      4.34932337	      4.94088415	    -61.75446252	      4.40307508	    -14.83424294	     25.02348153	     -3.84640290	     -0.60645333	     -5.76759667	    -10.84979545	     -4.08115239	      0.00000000	      0.00000000	      0.00000000	     -0.00586655	      0.00000000	      2.21275192	    -12.51245994	     -0.87908780	      6.92277080
      0.34583333	      3.59889630	     -3.13398526	     -6.07873083	     -0.40768586	      1.01798704	      0.28587088	     13.06795100	      4.73374617	      4.78906997	    -61.23533188	      4.85623540	    -14.68390403	     25.14140771	     -4.19255132	     -0.90473284	     -5.57236422	    -10.55600695	     -3.92821434	      0.00000000	      0.00000000	      0.00000000	     -0.00625002	      0.00000000	      2.32429912	    -12.50420715	     -0.48088627	      6.67488866
      0.35000000	      3.62813038	     -3.13711287	     -5.96979988	     -0.40325538	      1.01812303	      0.28575633	     13.61367819	      4.81028597	      4.76834724	    -60.83465921	      4.91240867	    -14.67438076	     25.14755440	     -4.49612942	     -0.87967081	     -5.58612716	    -10.56595711	     -3.98203736	      0.00000000	      0.00000000	      0.00000000	     -0.00611060	      0.00000000	      2.36502652	    -12.63109155	     -0.50513051	      6.64774376
      0.35416667	      3.51180482	     -3.42117517	     -5.63570717	     -0.39816949	      1.01823988	      0.28531365	     14.05675427	      5.18779889	      4.61850638	    -60.07685543	      5.38793677	    -14.52442294	     25.24443945	     -4.82331530	     -1.18343563	     -5.36903867	    -10.18765889	     -3.75737584	      0.00000000	      0.00000000	      0.00000000	     -0.00627909	      0.00000000	      2.63935715	    -12.49438178	     -0.11422060	      6.35423247
      0.35833333	      3.50587581	     -3.69497347	     -5.30938979	     -0.39332639	      1.01827325	      0.28477689	     14.49380723	      5.46067661	      4.30151996	    -59.45607464	      5.67090324	    -14.12932076	     25.25583090	     -5.48492404	     -1.44032216	     -5.06622429	     -9.07114928	     -3.05492751	      0.00000000	      0.00000000	      0.00000000	     -0.00686265	      0.00000000	      2.66295150	    -12.56794698	      0.30239401	      5.68417421
      0.36250000	      3.44337788	     -3.89017562	     -5.08989635	     -0.38874569	      1.01825530	      0.28446628	     14.99989911	      5.73306105	      4.20680600	    -58.81614652	      6.00000102	    -14.11321596	     25.27721830	     -5.78657594	     -1.64137661	     -4.97147734	     -8.83278544	     -2.92269023	      0.00000000	      0.00000000	      0.00000000	     -0.00707137	      0.00000000	      2.80723193	    -12.57676549	      0.54971166	      5.61676251
      0.36666667	      3.42081999	     -3.90968622	     -4.91494587	     -0.38434515	      1.01833131	      0.28429935	     15.50005710	      5.81674603	      4.17484931	    -58.17976396	      6.10915000	    -14.10529439	     25.27382747	     -6.04125418	     -1.64942207	     -4.99552452	     -8.77170201	     -2.89163671	      0.00000000	      0.00000000	      0.00000000	     -0.00692242	      0.00000000	      2.90023013	    -12.63876225	      0.55663455	      5.56108668
      0.37083333	      3.25294644	     -4.17832564	     -4.62580260	     -0.37959436	      1.01811413	      0.28390979	     16.05550875	      6.13480210	      3.96694861	    -57.42252047	      6.45472331	    -14.07351065	     25.27060788	     -6.31197825	     -1.95039756	     -4.75079911	     -8.31593794	     -2.61981025	      0.00000000	      0.00000000	      0.00000000	     -0.00732658	      0.00000000	      3.09982950	    -12.49357787	      0.92760002	      5.29726718
      0.37500000	      3.11744944	     -4.37954419	     -4.34576315	     -0.37488610	      1.01790423	      0.28348568	     16.60518086	      6.34878646	      3.73361383	    -56.68313838	      6.59956707	    -14.01180161	     25.10789807	     -6.69614603	     -2.16318865	     -4.55338872	     -7.55835096	     -2.13496894	      0.00000000	      0.00000000	      0.00000000	     -0.00769414	      0.00000000	      3.14730532	    -12.41530154	      1.24722145	      4.84483756
      0.37916667	      3.12237968	     -4.36360337	     -4.26174829	     -0.37083608	      1.01781513	      0.28346939	     17.14050189	      6.37470087	      3.69699342	    -56.09450201	      6.67689671	    -14.02537619	     25.09968803	     -6.94643644	     -2.13427476	     -4.59677286	     -7.56674707	     -2.15225067	      0.00000000	      0.00000000	      0.00000000	     -0.00767471	      0.00000000	      3.20692267	    -12.56497777	      1.19466382	      4.83004119
      0.38333333	      2.90868256	     -4.65517080	     -3.91110100	     -0.36585305	      1.01760506	      0.28298614	     17.62747273	      6.69010803	      3.45767025	    -55.11559494	      7.02051346	    -14.09557425	     24.92367934	     -7.23848500	     -2.46976173	     -4.33552250	     -6.88895106	     -1.72756309	      0.00000000	      0.00000000	      0.00000000	     -0.00795875	      0.00000000	      3.39421953	    -12.32776467	      1.60359238	      4.51805384
